<svg id="visual" viewBox="0 0 900 600" width="900" height="600" xmlns="http://www.w3.org/2000/svg" xmlns:xlink="http://www.w3.org/1999/xlink" version="1.1"><rect x="0" y="0" width="900" height="600" fill="#ffffff"></rect><path d="M0 85L37.5 93.2C75 101.3 150 117.7 225 126.8C300 136 375 138 450 129C525 120 600 100 675 101.3C750 102.7 825 125.3 862.5 136.7L900 148L900 601L862.5 601C825 601 750 601 675 601C600 601 525 601 450 601C375 601 300 601 225 601C150 601 75 601 37.5 601L0 601Z" fill="#15616d"></path><path d="M0 204L37.5 201.5C75 199 150 194 225 192C300 190 375 191 450 202.8C525 214.7 600 237.3 675 252.3C750 267.3 825 274.7 862.5 278.3L900 282L900 601L862.5 601C825 601 750 601 675 601C600 601 525 601 450 601C375 601 300 601 225 601C150 601 75 601 37.5 601L0 601Z" fill="#0b4d5c"></path><path d="M0 386L37.5 374.3C75 362.7 150 339.3 225 339.2C300 339 375 362 450 372.7C525 383.3 600 381.7 675 370.3C750 359 825 338 862.5 327.5L900 317L900 601L862.5 601C825 601 750 601 675 601C600 601 525 601 450 601C375 601 300 601 225 601C150 601 75 601 37.5 601L0 601Z" fill="#06394a"></path><path d="M0 415L37.5 427.2C75 439.3 150 463.7 225 466.5C300 469.3 375 450.7 450 450.7C525 450.7 600 469.3 675 473.8C750 478.3 825 468.7 862.5 463.8L900 459L900 601L862.5 601C825 601 750 601 675 601C600 601 525 601 450 601C375 601 300 601 225 601C150 601 75 601 37.5 601L0 601Z" fill="#042637"></path><path d="M0 469L37.5 479.7C75 490.3 150 511.7 225 527.7C300 543.7 375 554.3 450 554.5C525 554.7 600 544.3 675 528.7C750 513 825 492 862.5 481.5L900 471L900 601L862.5 601C825 601 750 601 675 601C600 601 525 601 450 601C375 601 300 601 225 601C150 601 75 601 37.5 601L0 601Z" fill="#001524"></path></svg>