<svg id="visual" viewBox="0 0 900 600" width="900" height="600" xmlns="http://www.w3.org/2000/svg" xmlns:xlink="http://www.w3.org/1999/xlink" version="1.1"><rect x="0" y="0" width="900" height="600" fill="#15616d"></rect><path d="M0 81L30 108.7C60 136.3 120 191.7 180 202.5C240 213.3 300 179.7 360 162.7C420 145.7 480 145.3 540 159.5C600 173.7 660 202.3 720 229.2C780 256 840 281 870 293.5L900 306L900 0L870 0C840 0 780 0 720 0C660 0 600 0 540 0C480 0 420 0 360 0C300 0 240 0 180 0C120 0 60 0 30 0L0 0Z" fill="#ffffff" stroke-linecap="round" stroke-linejoin="miter"></path></svg>