<svg id="visual" viewBox="0 0 900 600" width="900" height="600" xmlns="http://www.w3.org/2000/svg" xmlns:xlink="http://www.w3.org/1999/xlink" version="1.1"><rect x="0" y="0" width="900" height="600" fill="#ffffff"></rect><path d="M0 350L25 339.8C50 329.7 100 309.3 150 321.5C200 333.7 250 378.3 300 387.8C350 397.3 400 371.7 450 355.2C500 338.7 550 331.3 600 341.5C650 351.7 700 379.3 750 389.5C800 399.7 850 392.3 875 388.7L900 385L900 601L875 601C850 601 800 601 750 601C700 601 650 601 600 601C550 601 500 601 450 601C400 601 350 601 300 601C250 601 200 601 150 601C100 601 50 601 25 601L0 601Z" fill="#15616d" stroke-linecap="round" stroke-linejoin="miter"></path></svg>