<svg id="visual" viewBox="0 0 900 600" width="900" height="600" xmlns="http://www.w3.org/2000/svg" xmlns:xlink="http://www.w3.org/1999/xlink" version="1.1"><rect x="0" y="0" width="900" height="600" fill="#15616d"></rect><path d="M0 58L30 77.7C60 97.3 120 136.7 180 144.3C240 152 300 128 360 115.8C420 103.7 480 103.3 540 113.5C600 123.7 660 144.3 720 163.5C780 182.7 840 200.3 870 209.2L900 218L900 0L870 0C840 0 780 0 720 0C660 0 600 0 540 0C480 0 420 0 360 0C300 0 240 0 180 0C120 0 60 0 30 0L0 0Z" fill="#ffffff" stroke-linecap="round" stroke-linejoin="miter"></path></svg>