<svg id="visual" viewBox="0 0 900 600" width="900" height="600" xmlns="http://www.w3.org/2000/svg" xmlns:xlink="http://www.w3.org/1999/xlink" version="1.1"><rect x="0" y="0" width="900" height="600" fill="#15616d"></rect><defs><linearGradient id="grad1_0" x1="33.3%" y1="0%" x2="100%" y2="100%"><stop offset="20%" stop-color="#001524" stop-opacity="1"></stop><stop offset="80%" stop-color="#001524" stop-opacity="1"></stop></linearGradient></defs><defs><linearGradient id="grad1_1" x1="33.3%" y1="0%" x2="100%" y2="100%"><stop offset="20%" stop-color="#001524" stop-opacity="1"></stop><stop offset="80%" stop-color="#15616d" stop-opacity="1"></stop></linearGradient></defs><defs><linearGradient id="grad2_0" x1="0%" y1="0%" x2="66.7%" y2="100%"><stop offset="20%" stop-color="#001524" stop-opacity="1"></stop><stop offset="80%" stop-color="#001524" stop-opacity="1"></stop></linearGradient></defs><defs><linearGradient id="grad2_1" x1="0%" y1="0%" x2="66.7%" y2="100%"><stop offset="20%" stop-color="#15616d" stop-opacity="1"></stop><stop offset="80%" stop-color="#001524" stop-opacity="1"></stop></linearGradient></defs><g transform="translate(900, 0)"><path d="M0 459.7C-82.6 448.9 -165.1 438.2 -229.9 398.1C-294.6 358.1 -341.4 288.7 -376.7 217.5C-412.1 146.3 -435.9 73.1 -459.7 0L0 0Z" fill="#06394a"></path><path d="M0 229.9C-41.3 224.5 -82.6 219.1 -114.9 199.1C-147.3 179 -170.7 144.4 -188.4 108.8C-206 73.1 -217.9 36.6 -229.9 0L0 0Z" fill="#001524"></path></g><g transform="translate(0, 600)"><path d="M0 -459.7C94.2 -455.7 188.5 -451.6 229.9 -398.1C271.2 -344.6 259.8 -241.6 289.3 -167C318.8 -92.4 389.2 -46.2 459.7 0L0 0Z" fill="#06394a"></path><path d="M0 -229.9C47.1 -227.8 94.2 -225.8 114.9 -199.1C135.6 -172.3 129.9 -120.8 144.6 -83.5C159.4 -46.2 194.6 -23.1 229.9 0L0 0Z" fill="#001524"></path></g></svg>