<svg id="visual" viewBox="0 0 450 900" width="450" height="900" xmlns="http://www.w3.org/2000/svg" xmlns:xlink="http://www.w3.org/1999/xlink" version="1.1"><rect x="0" y="0" width="450" height="900" fill="#15616d"></rect><defs><linearGradient id="grad1_0" x1="0%" y1="0%" x2="100%" y2="100%"><stop offset="30%" stop-color="#001524" stop-opacity="1"></stop><stop offset="70%" stop-color="#001524" stop-opacity="1"></stop></linearGradient></defs><defs><linearGradient id="grad1_1" x1="0%" y1="0%" x2="100%" y2="100%"><stop offset="30%" stop-color="#001524" stop-opacity="1"></stop><stop offset="70%" stop-color="#15616d" stop-opacity="1"></stop></linearGradient></defs><defs><linearGradient id="grad2_0" x1="0%" y1="0%" x2="100%" y2="100%"><stop offset="30%" stop-color="#001524" stop-opacity="1"></stop><stop offset="70%" stop-color="#001524" stop-opacity="1"></stop></linearGradient></defs><defs><linearGradient id="grad2_1" x1="0%" y1="0%" x2="100%" y2="100%"><stop offset="30%" stop-color="#15616d" stop-opacity="1"></stop><stop offset="70%" stop-color="#001524" stop-opacity="1"></stop></linearGradient></defs><g transform="translate(450, 0)"><path d="M0 382.5C-39.8 326.2 -79.6 269.9 -141.5 245.1C-203.4 220.2 -287.4 226.9 -331.3 191.3C-375.1 155.6 -378.8 77.8 -382.5 0L0 0Z" fill="#06394a"></path><path d="M0 191.3C-19.9 163.1 -39.8 135 -70.7 122.5C-101.7 110.1 -143.7 113.4 -165.6 95.6C-187.6 77.8 -189.4 38.9 -191.2 0L0 0Z" fill="#001524"></path></g><g transform="translate(0, 900)"><path d="M0 -382.5C74 -376.6 148 -370.7 191.2 -331.3C234.5 -291.8 246.9 -218.8 273.7 -158C300.4 -97.2 341.5 -48.6 382.5 0L0 0Z" fill="#06394a"></path><path d="M0 -191.2C37 -188.3 74 -185.4 95.6 -165.6C117.2 -145.9 123.5 -109.4 136.8 -79C150.2 -48.6 170.7 -24.3 191.3 0L0 0Z" fill="#001524"></path></g></svg>