<svg id="visual" viewBox="0 0 900 600" width="900" height="600" xmlns="http://www.w3.org/2000/svg" xmlns:xlink="http://www.w3.org/1999/xlink" version="1.1"><rect x="0" y="0" width="900" height="600" fill="#15616d"></rect><path d="M0 244L21.5 229.8C43 215.7 86 187.3 128.8 177.2C171.7 167 214.3 175 257.2 183C300 191 343 199 385.8 197.2C428.7 195.3 471.3 183.7 514.2 184.3C557 185 600 198 642.8 210.3C685.7 222.7 728.3 234.3 771.2 216.5C814 198.7 857 151.3 878.5 127.7L900 104L900 0L878.5 0C857 0 814 0 771.2 0C728.3 0 685.7 0 642.8 0C600 0 557 0 514.2 0C471.3 0 428.7 0 385.8 0C343 0 300 0 257.2 0C214.3 0 171.7 0 128.8 0C86 0 43 0 21.5 0L0 0Z" fill="#ffffff" stroke-linecap="round" stroke-linejoin="miter"></path></svg>