<svg id="visual" viewBox="0 0 900 600" width="900" height="600" xmlns="http://www.w3.org/2000/svg" xmlns:xlink="http://www.w3.org/1999/xlink" version="1.1"><rect x="0" y="0" width="900" height="600" fill="#15616d"></rect><path d="M0 231L21.5 236.2C43 241.3 86 251.7 128.8 262.5C171.7 273.3 214.3 284.7 257.2 276.5C300 268.3 343 240.7 385.8 244.2C428.7 247.7 471.3 282.3 514.2 292.3C557 302.3 600 287.7 642.8 271.7C685.7 255.7 728.3 238.3 771.2 235.2C814 232 857 243 878.5 248.5L900 254L900 601L878.5 601C857 601 814 601 771.2 601C728.3 601 685.7 601 642.8 601C600 601 557 601 514.2 601C471.3 601 428.7 601 385.8 601C343 601 300 601 257.2 601C214.3 601 171.7 601 128.8 601C86 601 43 601 21.5 601L0 601Z" fill="#001524" stroke-linecap="round" stroke-linejoin="miter"></path></svg>